# xmcd
#
# Track frame offsets:
#	150
#	14053
#	29365
#	43258
#	57285
#	70863
#	88774
#	99988
#	116194
#	128285
#	143231
#	156862
#	169080
#	184710
#	197761
#	213264
#	224607
#	239739
#
# Disc length: 3378 seconds
#
# Revision: 0
# Processed by: cddbd v1.5.2PL0 Copyright (c) Steve Scherf et al.
# Submitted via: audiograbber 1.83.01
#
DISCID=0d0d3012
DTITLE=Captain Cook u. s. s. Saxophone - Captain Cook und seine singenden Saxop
DTITLE=hone-GOLD [CD2)
DYEAR=2010
DGENRE=
TTITLE0=Du bist mein erster Gedanke
TTITLE1=Schwarze Madonna
TTITLE2=Bleib bei mir
TTITLE3=Akropolis adieu
TTITLE4=Rambling Rose
TTITLE5=Nabucco
TTITLE6=Barcarole
TTITLE7=O Mia Bella Napoli
TTITLE8=Last Rose Of Summer
TTITLE9=Gitarren klingen leise durch die Nacht
TTITLE10=Weisse Rosen aus Athen
TTITLE11=Bist du einsam heut Nacht
TTITLE12=Der letzte Walzer
TTITLE13=Vom Stadtpark die Laternen
TTITLE14=Blue Bajou
TTITLE15=Mamatschi
TTITLE16=La Paloma
TTITLE17=Sierra Madre - Instrumental
EXTD=
EXTT0=
EXTT1=
EXTT2=
EXTT3=
EXTT4=
EXTT5=
EXTT6=
EXTT7=
EXTT8=
EXTT9=
EXTT10=
EXTT11=
EXTT12=
EXTT13=
EXTT14=
EXTT15=
EXTT16=
EXTT17=
PLAYORDER=
